<svg xmlns="http://www.w3.org/2000/svg" viewBox="0 0 512 512" role="img" aria-label="Portale PA - Città">
  <rect width="512" height="512" rx="112" fill="#1e88ff"/>

  <!-- City skyline (white, 2px stroke) -->
  <g fill="none" stroke="#ffffff" stroke-width="2" stroke-linecap="round" stroke-linejoin="round">
    <!-- Ground -->
    <path d="M96 356H416" />

    <!-- Buildings -->
    <rect x="118" y="232" width="56" height="124" rx="2"/>
    <rect x="184" y="206" width="70" height="150" rx="2"/>
    <rect x="264" y="246" width="54" height="110" rx="2"/>
    <rect x="326" y="218" width="68" height="138" rx="2"/>

    <!-- Windows lines -->
    <path d="M132 250h28M132 268h28M132 286h28M132 304h28M132 322h28"/>
    <path d="M198 228h42M198 246h42M198 264h42M198 282h42M198 300h42M198 318h42"/>
    <path d="M276 264h30M276 282h30M276 300h30M276 318h30"/>
    <path d="M340 238h40M340 256h40M340 274h40M340 292h40M340 310h40"/>

    <!-- Stylized dome / civic silhouette -->
    <path d="M208 186c10-20 22-30 48-30s38 10 48 30"/>
    <path d="M236 186v20M276 186v20"/>

    <!-- Small flag on one building -->
    <path d="M360 196v22"/>
    <path d="M360 196h16l-4 6 4 6h-16"/>
  </g>
</svg>
