<svg xmlns="http://www.w3.org/2000/svg" viewBox="0 0 512 512" role="img" aria-label="Portale PA">
  <defs>
    <linearGradient id="g" x1="0" y1="0" x2="1" y2="1">
      <stop offset="0%" stop-color="#1d4ed8"/>
      <stop offset="100%" stop-color="#2563eb"/>
    </linearGradient>
  </defs>
  <rect width="512" height="512" rx="112" fill="url(#g)"/>
  <path d="M256 108c-76 0-138 62-138 138 0 99 112 208 130 224a12 12 0 0 0 16 0c18-16 130-125 130-224 0-76-62-138-138-138Zm0 188a50 50 0 1 1 0-100 50 50 0 0 1 0 100Z" fill="#fff" opacity="0.98"/>
  <rect x="214" y="328" width="84" height="66" rx="8" fill="#ffffff"/>
  <rect x="228" y="342" width="10" height="10" rx="2" fill="#1d4ed8"/>
  <rect x="246" y="342" width="10" height="10" rx="2" fill="#1d4ed8"/>
  <rect x="264" y="342" width="10" height="10" rx="2" fill="#1d4ed8"/>
  <rect x="228" y="360" width="46" height="10" rx="2" fill="#1d4ed8"/>
</svg>
