<svg xmlns="http://www.w3.org/2000/svg" viewBox="0 0 512 512" role="img" aria-label="Portale PA - Città">
  <rect width="512" height="512" rx="112" fill="#1e88ff"/>

  <g fill="none" stroke="#ffffff" stroke-width="4" stroke-linecap="round" stroke-linejoin="round">
    <!-- sole stilizzato -->
    <circle cx="368" cy="138" r="26" />
    <path d="M368 94v-14M368 196v14M324 138h-14M426 138h14M338 108l-10-10M398 168l10 10M398 108l10-10M338 168l-10 10" />

    <!-- profilo città stilizzato -->
    <path d="M88 352H424" />
    <path d="M118 352V262h56v90" />
    <path d="M188 352V230h74v122" />
    <path d="M276 352V278h50v74" />
    <path d="M340 352V246h72v106" />

    <!-- dettagli minimi facciate -->
    <path d="M136 286h20M136 304h20M206 258h36M206 278h36M294 300h14M360 272h30M360 294h30" />

    <!-- cupola civica centrale -->
    <path d="M206 230c8-24 22-36 46-36s38 12 46 36" />
  </g>
</svg>
